<?xml version="1.0" standalone="no"?><!DOCTYPE svg PUBLIC "-//W3C//DTD SVG 1.1//EN" "http://www.w3.org/Graphics/SVG/1.1/DTD/svg11.dtd"><svg t="1615426000960" class="icon" viewBox="0 0 1024 1024" version="1.1" xmlns="http://www.w3.org/2000/svg" p-id="4088" xmlns:xlink="http://www.w3.org/1999/xlink" width="200" height="200"><defs><style type="text/css"></style></defs><path d="M57.159175 375.133832h687.31743l72.055203-275.056879a38.601547 38.601547 0 0 1 38.225835-31.038909h112.441063a38.285694 38.285694 0 0 1 38.243666 38.811691c0 21.578607-16.929967 39.298207-38.243666 39.298207h-83.2476L709.532837 808.939877a101.633293 101.633293 0 0 1 34.943768 165.370613l-1.63785 1.40096a98.13726 98.13726 0 0 1-68.804975 28.002647 96.476486 96.476486 0 0 1-69.863336-29.403607 100.862765 100.862765 0 0 1-29.222756-71.455337 103.925773 103.925773 0 0 1 15.015746-53.181722h-290.966693a99.073356 99.073356 0 0 1 15.293391 53.181722 100.636064 100.636064 0 0 1-28.948932 71.460431 98.386886 98.386886 0 0 1-140.304887 0h-0.254721A101.933862 101.933862 0 0 1 115.56011 902.855153c0-19.380374 5.99611-37.66163 15.545564-53.745927-18.849282-2.455501-33.281719-18.849282-33.281719-38.786219a38.64867 38.64867 0 0 1 38.495838-38.763295h503.349708l25.64776-96.952812H113.366971a38.972165 38.972165 0 0 1-38.218194-32.138026l-55.401607-218.577807c-5.189921-20.759683 7.104142-42.08357 27.561982-47.35118a39.696843 39.696843 0 0 1 9.851297-1.40096z m360.301485-54.535558h3.274426v-0.588404h1.635303l0.554016-0.536185h0.529818l1.360205-1.125863h0.83166v-0.536185h0.830388l0.25472-0.281466h0.555289v-0.276371h0.528544v-0.25472l0.554017-0.281466 1.109305-0.58713v-0.537459h0.554016v-0.287834h0.528544v-0.536185l0.277645-0.281466 0.528544-0.562931h0.277645l0.554016-0.536186 141.942738-144.329464a23.499197 23.499197 0 0 0 0-32.956952c-8.741991-8.897371-23.757737-8.897371-32.197886 0l-103.72327 105.26178V43.853874a23.082729 23.082729 0 1 0-46.15527 0v197.509913l-103.448173-105.26178a23.771747 23.771747 0 0 0-33.029546 0c-8.440148 8.846427-8.440148 23.829059 0 32.956952l142.220382 144.329464 0.554016 0.536186h0.277645l0.25472 0.562931 0.554016 0.281466 0.276371 0.25472 0.25472 0.281465 0.277645 0.281466 0.806189 0.281466v0.25472l1.133504 0.587129v0.289108l0.528544 0.25472 0.55529 0.281465 0.528544 0.281466h0.554016l0.25472 0.536186h0.579488l1.63785 1.125862h0.806189l0.528544 0.536186h1.08256l0.579488 0.588403h2.972583l2.469511 0.536186 2.191866-0.536186zM673.757409 849.109226a25.422333 25.422333 0 0 1-4.888077 0.281466v0.280192h-1.108033a53.346016 53.346016 0 0 0-31.391696 15.520091 53.917863 53.917863 0 0 0-15.267919 37.664178 54.918912 54.918912 0 0 0 15.267919 38.504753 52.895162 52.895162 0 0 0 37.664177 15.232258c14.209557 0 27.309808-4.984871 36.605816-14.391681l1.083834-0.843124a53.864372 53.864372 0 0 0 15.292117-38.502206 52.865869 52.865869 0 0 0-15.293391-37.66163 52.548743 52.548743 0 0 0-37.688376-16.084297h-0.277645z m-452.282162 0.561658h-12.82388a54.7941 54.7941 0 0 0-30.311684 14.420974l-0.830387 1.099117a53.176627 53.176627 0 0 0-15.543017 37.664178 54.154752 54.154752 0 0 0 15.545564 38.504753 53.858004 53.858004 0 0 0 75.077456 0 54.073242 54.073242 0 0 0 15.569762-38.504753 53.096391 53.096391 0 0 0-15.569762-37.66163c-8.187975-8.871899-19.121833-13.832571-31.114052-15.520092zM723.716922 453.019577H106.288301l36.552325 143.741061h543.212119v-0.281466L723.716922 453.019577z" p-id="4089"></path></svg>